<svg id="visual" viewBox="0 0 960 480" width="960" height="480" xmlns="http://www.w3.org/2000/svg" xmlns:xlink="http://www.w3.org/1999/xlink" version="1.1"><rect x="0" y="0" width="960" height="480" fill="#FFFFFF"></rect><defs><linearGradient id="grad1_0" x1="50%" y1="100%" x2="100%" y2="0%"><stop offset="10%" stop-color="#ffffff" stop-opacity="1"></stop><stop offset="90%" stop-color="#ffffff" stop-opacity="1"></stop></linearGradient></defs><defs><linearGradient id="grad2_0" x1="0%" y1="100%" x2="50%" y2="0%"><stop offset="10%" stop-color="#ffffff" stop-opacity="1"></stop><stop offset="90%" stop-color="#ffffff" stop-opacity="1"></stop></linearGradient></defs><g transform="translate(960, 480)"><path d="M-168 0C-154.1 -26.7 -140.3 -53.5 -121.2 -70C-102.2 -86.5 -78.1 -92.9 -57 -98.7C-35.9 -104.5 -18 -109.8 0 -115L0 0Z" fill="#715DF2"></path></g><g transform="translate(0, 0)"><path d="M163 0C149.6 23.5 136.3 47 123.8 71.5C111.4 96 100 121.5 79.5 137.7C59 153.9 29.5 161 0 168L0 0Z" fill="#715DF2"></path></g></svg>