<svg id="visual" viewBox="0 0 960 500" width="960" height="500" xmlns="http://www.w3.org/2000/svg" xmlns:xlink="http://www.w3.org/1999/xlink" version="1.1"><rect x="0" y="0" width="960" height="500" fill="#FFFFFF"></rect><g transform="translate(924.2768109267213 496.07269264573756)"><path d="M187.3 -311.3C209.9 -276.9 172.7 -169.4 214 -93.5C255.3 -17.5 375.1 26.8 377.5 58.7C379.8 90.7 264.7 110.2 198.4 153.3C132.1 196.5 114.5 263.3 72.6 299.4C30.7 335.5 -35.5 340.9 -91.2 320.2C-146.9 299.5 -192.1 252.5 -225 202C-257.8 151.4 -278.4 97.2 -293.3 38.1C-308.1 -21.1 -317.3 -85.1 -278.8 -109.8C-240.2 -134.5 -153.9 -119.8 -99.5 -139.6C-45.1 -159.4 -22.5 -213.7 29.9 -260.3C82.4 -306.8 164.7 -345.6 187.3 -311.3" fill="#715DF2"></path></g></svg>