<svg id="visual" viewBox="0 0 960 370" width="960" height="370" xmlns="http://www.w3.org/2000/svg" xmlns:xlink="http://www.w3.org/1999/xlink" version="1.1"><rect x="0" y="0" width="960" height="370" fill="#FFFFFF"></rect><path d="M0 344L20 337.7C40 331.3 80 318.7 120 318.7C160 318.7 200 331.3 240 337.5C280 343.7 320 343.3 360 337.2C400 331 440 319 480 316.2C520 313.3 560 319.7 600 323.2C640 326.7 680 327.3 720 330.7C760 334 800 340 840 338.7C880 337.3 920 328.7 940 324.3L960 320L960 371L940 371C920 371 880 371 840 371C800 371 760 371 720 371C680 371 640 371 600 371C560 371 520 371 480 371C440 371 400 371 360 371C320 371 280 371 240 371C200 371 160 371 120 371C80 371 40 371 20 371L0 371Z" fill="#8bc6f9"></path><path d="M0 343L20 346.5C40 350 80 357 120 353.7C160 350.3 200 336.7 240 333.5C280 330.3 320 337.7 360 341.8C400 346 440 347 480 349.7C520 352.3 560 356.7 600 355.2C640 353.7 680 346.3 720 339.8C760 333.3 800 327.7 840 332.2C880 336.7 920 351.3 940 358.7L960 366L960 371L940 371C920 371 880 371 840 371C800 371 760 371 720 371C680 371 640 371 600 371C560 371 520 371 480 371C440 371 400 371 360 371C320 371 280 371 240 371C200 371 160 371 120 371C80 371 40 371 20 371L0 371Z" fill="#377ebb"></path></svg>