<svg id="visual" viewBox="0 0 960 350" width="960" height="350" xmlns="http://www.w3.org/2000/svg" xmlns:xlink="http://www.w3.org/1999/xlink" version="1.1"><path d="M0 85L87 110L175 75L262 123L349 61L436 43L524 64L611 141L698 57L785 113L873 71L960 47L960 0L873 0L785 0L698 0L611 0L524 0L436 0L349 0L262 0L175 0L87 0L0 0Z" fill="#cccccc"></path><path d="M0 152L87 134L175 99L262 176L349 131L436 99L524 110L611 204L698 123L785 152L873 134L960 96L960 45L873 69L785 111L698 55L611 139L524 62L436 41L349 59L262 121L175 73L87 108L0 83Z" fill="#bbb0d6"></path><path d="M0 211L87 190L175 148L262 197L349 187L436 155L524 162L611 257L698 166L785 204L873 190L960 152L960 94L873 132L785 150L698 121L611 202L524 108L436 97L349 129L262 174L175 97L87 132L0 150Z" fill="#a894e0"></path><path d="M0 278L87 316L175 274L262 281L349 278L436 288L524 267L611 309L698 288L785 278L873 285L960 292L960 150L873 188L785 202L698 164L611 255L524 160L436 153L349 185L262 195L175 146L87 188L0 209Z" fill="#9078e9"></path><path d="M0 351L87 351L175 351L262 351L349 351L436 351L524 351L611 351L698 351L785 351L873 351L960 351L960 290L873 283L785 276L698 286L611 307L524 265L436 286L349 276L262 279L175 272L87 314L0 276Z" fill="#715df2"></path></svg>